<?xml version="1.0" encoding="UTF-8"?>
<svg id="Layer_1" data-name="Layer 1" xmlns="http://www.w3.org/2000/svg" version="1.1" viewBox="0 0 293 23">
  <defs>
    <style>
      .cls-1 {
        fill: #1d1d1b;
        stroke-width: 0px;
      }
    </style>
  </defs>
  <path class="cls-1" d="M16,17.6L7.4,7.3v10.4h-1.2V5.4h1.2c1,1.3,2.5,3,4.3,5.2,2.1,2.4,3.5,4.1,4.3,5.1V5.4h1.2v12.2h-1.2Z"/>
  <path class="cls-1" d="M32.1,13.8v3.8h-1.2v-3.8h-6.8l4.2-7.9h1.3l-3.6,6.8h5v-6.8h1.2v6.8h2.3v1.1h-2.3Z"/>
  <path class="cls-1" d="M44.5,14.1c0,1.2-.5,2.2-1.4,2.9-.8.6-1.9.9-3.2.9s-2.3-.3-3.2-1c-.9-.7-1.3-1.8-1.3-3.3h1.2c0,1.1.3,2,.9,2.5.6.5,1.4.7,2.4.7s1.8-.2,2.4-.7c.6-.5.9-1.2.9-2.1v-1.7c-.8.7-1.9,1.1-3.3,1.1s-2.4-.3-3.2-1c-.9-.7-1.3-1.7-1.3-2.9s.4-2.2,1.3-2.9c.8-.6,1.9-1,3.2-1s2.3.3,3.2,1c.9.7,1.3,1.6,1.3,2.9v.2h0v4.3ZM40,6.7c-1,0-1.8.2-2.4.7-.6.5-.9,1.2-.9,2.1s.3,1.6.9,2.1c.6.5,1.4.7,2.4.7s1.8-.2,2.4-.7c.6-.5.9-1.2.9-2.1s-.3-1.5-.8-2c-.6-.6-1.4-.8-2.5-.8Z"/>
  <path class="cls-1" d="M49,10.7c-.8,0-1.5-.2-2.1-.6-.6-.5-1-1.1-1-1.8s.3-1.3,1-1.8c.6-.4,1.3-.6,2.1-.6s1.5.2,2.1.6c.6.5,1,1.1,1,1.8s-.3,1.4-1,1.8c-.6.4-1.3.6-2.1.6ZM49,6.8c-.5,0-1,.1-1.4.4-.4.3-.6.6-.6,1s.2.8.6,1c.4.3.8.4,1.4.4s1-.1,1.4-.4c.4-.3.6-.6.6-1s-.2-.8-.6-1.1c-.4-.2-.8-.3-1.3-.3Z"/>
  <path class="cls-1" d="M63.9,17.6V7.7l-2.2,1.7h-1.9l4.3-3.4h.9v11.6h-1.2Z"/>
  <path class="cls-1" d="M75.2,10.1c0-1.1-.3-1.9-.9-2.5-.6-.5-1.4-.8-2.4-.8s-1.8.2-2.4.7c-.6.5-.9,1.2-.9,2.1v1.3c.8-.7,1.9-1.1,3.3-1.1s2.4.3,3.2,1c.9.7,1.3,1.7,1.3,2.9s-.4,2.2-1.3,2.9c-.8.6-1.9,1-3.2,1s-2.4-.3-3.2-1c-.9-.7-1.3-1.6-1.3-2.9v-.2h0v-4c0-1.2.5-2.2,1.4-2.9.8-.6,1.9-1,3.2-1s2.3.3,3.1,1c.9.7,1.4,1.8,1.4,3.3h-1.2ZM71.8,11.1c-1,0-1.8.2-2.4.7-.6.5-.9,1.2-.9,2.1s.3,1.6.9,2.1c.6.5,1.4.7,2.4.7s1.8-.2,2.4-.7c.6-.5.9-1.2.9-2.1s-.3-1.5-.8-2c-.6-.5-1.4-.8-2.5-.8Z"/>
  <path class="cls-1" d="M78.6,7.8c-.4,0-.6-.2-.6-.5v-1.3c0-.3.2-.5.6-.5s.6.2.6.5v1.3c0,.3-.2.5-.6.5Z"/>
  <path class="cls-1" d="M91.9,17.8c-1.5,0-2.6-.3-3.5-1-1-.7-1.5-1.8-1.5-3.1v-.6h1.2v.8c0,.9.4,1.6,1.1,2.1.7.4,1.5.6,2.6.6s1.8-.2,2.5-.6c.8-.4,1.2-1.1,1.2-1.9,0-1.6-1.1-2.3-3.4-2.3h-1.2v-1.1h1.2c2.1,0,3.1-.7,3.1-2s-.3-1.2-1-1.5c-.6-.3-1.3-.4-2.2-.4-1.3,0-2.2.3-2.8.8-.6.5-.9,1.3-.9,2.5h-1.2c0-1.6.5-2.7,1.4-3.4.8-.6,1.9-.9,3.4-.9s2.2.2,2.9.6c1,.5,1.5,1.3,1.5,2.4s-.5,2.1-1.6,2.6c1.2.5,1.9,1.5,1.9,2.9s-.5,2.1-1.6,2.7c-.9.5-2,.8-3.2.8Z"/>
  <path class="cls-1" d="M105.7,16.8c-.9.7-2,1-3.4,1s-2.6-.3-3.5-.9c-.9-.7-1.4-1.9-1.4-3.5h1.2c0,1.3.3,2.1,1,2.6.6.5,1.5.7,2.7.7s2-.3,2.6-.8c.7-.5,1-1.3,1-2.3s-.4-1.8-1.1-2.3c-.7-.5-1.6-.8-2.7-.8s-2.5.6-3.3,1.7h-1.1l.3-6.3h8.5v1.1h-7.3l-.2,3.4c.8-.6,1.9-1,3.1-1s2.5.4,3.4,1.1c1,.8,1.5,1.8,1.5,3.1s-.5,2.4-1.4,3.1Z"/>
  <path class="cls-1" d="M109.5,17.6c-.4,0-.6-.1-.6-.4v-.7c0-.3.2-.4.6-.4s.6.1.6.4v.7c0,.3-.2.4-.6.4Z"/>
  <path class="cls-1" d="M116.2,17.6V7.7l-2.2,1.7h-1.9l4.3-3.4h.9v11.6h-1.2Z"/>
  <path class="cls-1" d="M122.9,17.6h-1.3l5.5-10.5h-7.5v-1.1h9.3l-6.1,11.6Z"/>
  <path class="cls-1" d="M134.6,17.8c-1.5,0-2.6-.3-3.5-1-1-.7-1.5-1.8-1.5-3.1v-.6h1.2v.8c0,.9.4,1.6,1.1,2.1.7.4,1.5.6,2.6.6s1.8-.2,2.5-.6c.8-.4,1.2-1.1,1.2-1.9,0-1.6-1.1-2.3-3.4-2.3h-1.2v-1.1h1.2c2.1,0,3.1-.7,3.1-2s-.3-1.2-1-1.5c-.6-.3-1.3-.4-2.2-.4-1.3,0-2.2.3-2.8.8s-.9,1.3-.9,2.5h-1.2c0-1.6.5-2.7,1.4-3.4.8-.6,2-.9,3.4-.9s2.2.2,2.9.6c1,.5,1.5,1.3,1.5,2.4s-.5,2.1-1.6,2.6c1.2.5,1.9,1.5,1.9,2.9s-.5,2.1-1.6,2.7c-.9.5-2,.8-3.2.8Z"/>
  <path class="cls-1" d="M141.4,7.8c-.4,0-.6-.2-.6-.5v-1.3c0-.3.2-.5.6-.5s.6.2.6.5v1.3c0,.3-.2.5-.6.5ZM143.5,7.8c-.4,0-.6-.2-.6-.5v-1.3c0-.3.2-.5.6-.5s.6.2.6.5v1.3c0,.3-.2.5-.6.5Z"/>
  <path class="cls-1" d="M152.1,17.6h-1.3l6.4-12.5h1.3l-6.4,12.5Z"/>
  <path class="cls-1" d="M176.6,17.6h-1l-2.8-6.2-2.7,6.2h-1l-5.4-12.2h1.3l4.7,10.4,2.5-5.9-2-4.6h1.3l4.7,10.4,4.5-10.4h1.3l-5.3,12.2Z"/>
  <path class="cls-1" d="M196.7,16.5c-.8.9-2,1.3-3.5,1.3s-2.6-.4-3.5-1.3c-.9-.9-1.3-2-1.3-3.4v-2.9c0-1.4.4-2.5,1.3-3.4.9-.9,2-1.3,3.5-1.3s2.7.4,3.5,1.3c.8.9,1.3,2,1.3,3.4v2.9c0,1.4-.4,2.5-1.3,3.4ZM196.8,10.2c0-1.1-.3-2-1-2.6-.6-.7-1.5-1-2.6-1s-2,.3-2.6,1c-.6.7-1,1.5-1,2.6v2.9c0,1.1.3,1.9,1,2.6.6.7,1.5,1,2.6,1s2-.3,2.6-1c.6-.7,1-1.5,1-2.6v-2.9Z"/>
  <path class="cls-1" d="M202.2,10.7c-.8,0-1.5-.2-2.1-.6-.6-.5-1-1.1-1-1.8s.3-1.3,1-1.8c.6-.4,1.3-.6,2.1-.6s1.5.2,2.1.6c.6.5,1,1.1,1,1.8s-.3,1.4-1,1.8c-.6.4-1.3.6-2.1.6ZM202.2,6.8c-.5,0-1,.1-1.4.4-.4.3-.6.6-.6,1s.2.8.6,1c.4.3.8.4,1.4.4s1-.1,1.4-.4c.4-.3.6-.6.6-1s-.2-.8-.6-1.1c-.4-.2-.8-.3-1.3-.3Z"/>
  <path class="cls-1" d="M220.3,13.8v3.8h-1.2v-3.8h-6.8l4.2-7.9h1.3l-3.6,6.8h5v-6.8h1.2v6.8h2.3v1.1h-2.3Z"/>
  <path class="cls-1" d="M223.5,17.6c0-2.4,1.3-4.2,3.8-5.7.4-.2,1.3-.7,2.5-1.4,1-.6,1.5-1.1,1.5-1.7s-.3-1.2-.9-1.5c-.5-.3-1.2-.4-2-.4s-2,.3-2.6.8c-.5.5-.8,1.4-.8,2.6h-1.2c0-1.6.4-2.7,1.2-3.4.8-.7,1.9-1.1,3.3-1.1s2.1.2,2.8.6c.9.5,1.4,1.4,1.4,2.4s-1,2.1-3,3.2c-1,.5-1.7.9-2.2,1.2-1.4,1.1-2.3,2.1-2.4,3.2h8.2v1.1h-9.5Z"/>
  <path class="cls-1" d="M235,7.8c-.4,0-.6-.2-.6-.5v-1.3c0-.3.2-.5.6-.5s.6.2.6.5v1.3c0,.3-.2.5-.6.5Z"/>
  <path class="cls-1" d="M247.7,17.6V7.7l-2.2,1.7h-1.9l4.3-3.4h.9v11.6h-1.2Z"/>
  <path class="cls-1" d="M255.2,17.6V7.7l-2.2,1.7h-1.9l4.3-3.4h.9v11.6h-1.2Z"/>
  <path class="cls-1" d="M259.7,17.6c-.4,0-.6-.1-.6-.4v-.7c0-.3.2-.4.6-.4s.6.1.6.4v.7c0,.3-.2.4-.6.4Z"/>
  <path class="cls-1" d="M266.9,17.8c-1.5,0-2.6-.3-3.5-1-1-.7-1.5-1.8-1.5-3.1v-.6h1.2v.8c0,.9.4,1.6,1.1,2.1.7.4,1.5.6,2.6.6s1.8-.2,2.5-.6c.8-.4,1.2-1.1,1.2-1.9,0-1.6-1.1-2.3-3.4-2.3h-1.2v-1.1h1.2c2.1,0,3.1-.7,3.1-2s-.3-1.2-1-1.5c-.6-.3-1.3-.4-2.2-.4-1.3,0-2.2.3-2.8.8s-.9,1.3-.9,2.5h-1.2c0-1.6.5-2.7,1.4-3.4.8-.6,2-.9,3.4-.9s2.2.2,2.9.6c1,.5,1.5,1.3,1.5,2.4s-.5,2.1-1.6,2.6c1.2.5,1.9,1.5,1.9,2.9s-.5,2.1-1.6,2.7c-.9.5-2,.8-3.2.8Z"/>
  <path class="cls-1" d="M280.9,16.5c-.8.9-2,1.3-3.5,1.3s-2.6-.4-3.5-1.3c-.9-.9-1.3-2-1.3-3.4v-2.9c0-1.4.4-2.5,1.3-3.4.9-.9,2-1.3,3.5-1.3s2.7.4,3.5,1.3c.8.9,1.3,2,1.3,3.4v2.9c0,1.4-.4,2.5-1.3,3.4ZM280.9,10.2c0-1.1-.3-2-1-2.6-.6-.7-1.5-1-2.6-1s-2,.3-2.6,1c-.6.7-1,1.5-1,2.6v2.9c0,1.1.3,1.9,1,2.6.6.7,1.5,1,2.6,1s2-.3,2.6-1c.6-.7,1-1.5,1-2.6v-2.9Z"/>
  <path class="cls-1" d="M284.2,7.8c-.4,0-.6-.2-.6-.5v-1.3c0-.3.2-.5.6-.5s.6.2.6.5v1.3c0,.3-.2.5-.6.5ZM286.2,7.8c-.4,0-.6-.2-.6-.5v-1.3c0-.3.2-.5.6-.5s.6.2.6.5v1.3c0,.3-.2.5-.6.5Z"/>
</svg>