<?xml version="1.0" encoding="UTF-8"?>
<svg id="Layer_1" data-name="Layer 1" xmlns="http://www.w3.org/2000/svg" version="1.1" viewBox="0 0 561 140">
  <defs>
    <style>
      .cls-1 {
        fill: #1d1d1b;
        stroke-width: 0px;
      }
    </style>
  </defs>
  <path class="cls-1" d="M150.6,69.2c-1.4.8-2.7,1.8-3.7,2.6-3.3,2.3-6.2,4.4-9.7,5.9-.6.2-.9.5-1.2.8-4.6,3.7-10,5.5-14.6,7.9-3.8,1.7-7.3,3.3-10.7,5.2l-5.3,2.4c-1.4.3-2.6.3-3.7,0-.8-.3-1.4-.8-1.7-1.1-1.8-1.7-2.4-3.8-2.9-6.1-.5-2.1-.6-4.7,0-7.2,1.1-3,2.4-6.2,3.7-9.7v-1.2c-.5.3-.6.3-.8.3-3.3,1.2-6.4,2.7-9.3,4.4-1.8.8-3.7,1.8-5.2,3.2-2.1,1.1-4.1,2.6-5.9,3.7l-6.4,3.8-9.4,6.7c-.5.5-1.1.8-1.7.9-1.7,1.1-3,1.1-4.1-.6-.8-1.5-1.7-3.2-2.1-5-.6-1.1,0-2.4.5-3.7.8-1.5.9-3,1.7-4.7,2.7-6.7,4.9-14,7.3-20.9l.6-2.7c-1.2-.3-1.7.6-2.1.8-.9.2-1.5.8-2.1,1.1-.3.6-.9.9-1.4,1.1-.9.5-1.4.9-2,1.4-.9.6-1.2,1.1-2,1.4-3.7,3.2-7.5,6.2-11.4,9.3-.8.8-1.5,1.2-2.6,2.1-1.4,2.3-3.3,3.8-5.3,5.5-2.3,1.8-4.6,4.3-7,6.8-1.5,1.5-2.9,3.3-4.7,5,0,0,0,.5-.2.5-3.5,2.6-6.2,6.7-9.7,9.7-1.8,1.2-3.3,2.7-4.7,4.3-.5.5-.8.6-1.7.6-1.1.6-1.8-.2-2.4-.6-3.2-3-4.1-6.4-3-10.7.8-1.8,1.2-3.3,1.8-5,1.8-5.2,4.6-9.9,7.5-14.5,1.4-2.6,3.2-4.3,3.8-7.2.6-1.1,2-1.4,2.7-1.1,1.7.9,3,2,3.8,3.3,1.1,1.7,1.1,3.8-.3,5-1.5,2-2.4,4.7-4.3,6.4-.8,1.1-1.4,2.4-2.1,3.7-1.8,3-3.3,5.9-5,8.7-.3.5-.3,1.1-.3,1.5,1.7-1.1,2.4-2,3.5-2.9l15.7-16c2.6-2.4,5.5-4.6,8.2-7.2,4.3-3.8,8.8-7.5,13.2-11.1,2.9-2,5.5-4,8.2-5.8,1.5-1.1,3.5-2.4,5.5-3,1.5-.9,3.2-1.1,4.6.5.2.8.9.8,1.1.9,2.1,1.1,3,2.7,2.4,4.9-.6,3.3-.8,6.8-2.4,10-.8.8-.9,2-1.1,3-.3,2.1-2,3.7-2.9,5.8-.5,2-.6,4.3-1.4,5.8-1.1,1.5-1.2,2.4-1.8,3.7v.3q.3.3.6.3c.2,0,.2-.3.8-.3,6.1-4,12.5-7.8,18.6-11.9,5-3.2,10.3-5.6,15.8-7.5,1.1-.5,2.3-1.2,3-1.7,1.2-.8,2.6-.6,3.8-.3.8,0,1.1.5,1.1.8.2.8,0,1.2.9,1.2s1.8.8,1.8,1.5,0,1.7-.2,2.4c-.8,1.8-1.4,3.5-1.8,5.5-.8,2.4-2.1,4.6-3.5,7-1.1,2.4-2.6,4.7-2.9,7.3,0,.8.3,1.4.9.9,4.3-1.5,8.1-3.3,12.2-5.3,3.2-1.5,6.2-2.7,8.8-4.3,6.2-2.6,12.3-5.9,18.1-9.7,2.6-1.4,4.9-2.7,7.5-3.8,1.1-.6,1.8,0,2.1,1.1.9,1.7.6,2.7-1.1,3.8ZM46.5,64.3c-1.2,0-1.8,1.1-2.3,1.7.8,0,2-.3,2.3-1.7ZM50.3,61.3c-.6,0-1.1,0-1.4,1.1.5,0,.9,0,1.4-1.1ZM53.2,59.1c-.8,0-1.5.3-2.3,1.4,1.2,0,1.8-.8,2.3-1.4ZM141.5,72.2c-.8.2-1.8.6-2.3,1.8,1.1-.5,1.8-.6,2.3-1.8ZM145.1,69.9c-.8,0-1.5.3-1.7,1.5.6,0,1.5-.5,1.7-1.5Z"/>
  <path class="cls-1" d="M139.2,86.2c.3,0,.8,0,.9-.6,0-.2,0-.3-.2-.3h.2c.5,0,.6-.3,1.4-.3-1.2-.9,0-1.4.8-1.8,1.2-.8,2.7-1.1,4-1.7v.6q.3,0,.8-.3t-.8-.3c.3-.8.9-.8,1.7-.8,0,.3.3.3.3.5l.6-.5h-.5c.6-.3.6-.9,1.4-1.1,2.3-1.4,2.3-3.8,2.6-6.2.3-2,.3-3.5.9-5.5.2-1.7.2-3.2-1.2-4.4-.8-1.1-.5-2.1,0-3.2,0-.5.6-.6.9-.6,1.2,0,2.4,0,3.5.6.2.6.6.8,1.1,1.1,1.1.3,1.4,1.1,1.4,2.3v11.7c0,.5.6.6,1.1.5,2-.9,3.5-2.3,5.6-2.4,2-.6,3.7-1.4,5.3-2,2.9-.5,5.6-1.5,8.4-1.5,4-1.4,8.2-.6,11.6-2.1,1.2-.5,2.3-.5,3,.3,1.4,1.1,2.6,1.5,3.2,3.3.2.6.6,1.4,1.2,2-1.1.2-2,.2-2.7.2h-4c-2.1,0-4.7,0-7,.8-1.4.6-3.2.6-4.9,1.1-1.8.5-3.8.5-5.3,1.8-.5,0-.6.3-.9.3-3.2.3-6.2,1.7-9.4,2.7-2.1.5-4.4,1.5-6.5,2.7-.6.2-1.1.6-1.1,1.2-.8,2.3-2,4.4-3.2,6.2-.9.9-.6,2.4-1.8,3.2-.6,1.1-1.1,2.3-1.5,3.7-.2,1.1-1.1,2.6-2,3.2-2,2-2.9,4.9-4.9,6.5v-.3h-.3l.3.3h.3c-.8,1.5-1.4,3-3,3.3-.2.6-.6.8-.8,1.1-1.4,3.5-4.3,5.9-6.2,9-.5.5-1.2,1.1-1.4,1.4-2.3,2.1-4.6,3.8-6.2,6.2-1.1,1.5-3,2.7-4.7,3.7-2,1.8-4.4,3.3-7.3,5-1.1.5-2.7,1.1-4.1,1.1-1.5.2-3.2-.6-4.7-1.2-1.4-1.2-2.1-2.3-2.9-4-.9-2.1-1.4-4.6-1.7-6.7-.2-2.9.3-5,1.7-7.2,1.5-2.1,2.9-4.6,4.6-6.5,3.2-4,7-7.9,10.7-11.1.6-.6,1.1-.6,1.8-.8q0,.2.2.5c0-.3.3-.3.6-.5h-.6l.6-.8v.8c.5,0,.6-.3.6-.8h-.5c0-.6.3-1.1.5-1.1v1.1h1.8v-1.1h-1.4c.5-1.2,1.4-2.1,2.9-2.1q-.3.5-.3.8h.2c.2,0,.5-.3.6-.8.5-.3.6-.3.6-.5l-.2-.3c.6-1.4,1.4-2.1,3-2.4v.9q.2-.5.5-.5-.3-.2-.5-.5c.2-1.1.9-1.5,2-1.5.5.2.5.5.5.8.2-.3.2-.6.5-.8h-.5c0-.8.2-.8.5-.9v.9h.3c.6,0,1.1-.2,1.2-.9h-1.2c0-.9.8-.5,1.2-.5v.5c.3,0,.8-.3.8-.5,0,0-.5,0-.5-.5.5-.9,1.1-1.2,2.1-1.2l.6-.8v.8h-.5c.2.2.2.3.5.3,0,0,0-.3.2-.3.8,0,1.2,0,1.4-.9h-1.4c.6-.5,1.1-.9,1.4-.9v.9c.9-.3.9-.5.5-.9,0-.8.6-.3,1.4-.6.3.5.6.5.8,0h-.8c0-.6.3-.6.8-.9v.9ZM147.7,88.5c-1.5-1.1-1.8.5-2.7.8-.5,0-1.1.2-1.5.5-.9.2-1.8.8-2.7,1.7s-2,1.8-3.7,2.3c-2.3,1.5-4.1,3.2-6.1,4.7-2.1,2-4.4,3.3-6.2,5.2-2.1,1.8-4,3.7-5.8,5.5-3.2,2.7-5.9,5.6-8.1,8.8-.6,1.4-1.4,1.8-1.8,2.6-.3.5-.8.6-.8,1.4-.6,2.1-2.3,3.5-3,5.3-.5.3-.8.9-.9,1.4-.5,1.1,0,2.3,1.1,3s2.3.6,3.3.8c1.4,0,2.4-.2,3.8-.8,2-1.1,4-2,5.3-3.5l7.5-5.9c2.3-2.3,4.3-4.7,6.5-7.2.2-.5.9-.9,1.1-1.5,2.9-3.7,5.5-7.3,7.6-11.3,2.4-3.7,4.6-7,5.9-11.3.5-.6,1.4-1.5,1.2-2.4ZM143.9,84.6h.8s.3-.3.5-.3l-.6-.8q-.5.2-.6.6v.5ZM148.3,80.8h-.5c0-.3.2-.3.3-.3,0,0,.2.2.2.3ZM152.6,44.2c0-.8,0-1.1.3-1.4,1.2-.6,2.9-1.5,4.1-2.7,1.4-.8,2.6-.5,3.8.3,1.2.9,2.6,1.8,3.2,3.2.5,1.2,0,2.3-1.2,2h-2.9c-2.4.3-4.6,0-6.7-.8-.3-.3-.6-.5-.6-.6ZM164,78.6c-.9-.3-1.7-.6-2.1.5.8,0,2,.2,2.1-.5ZM173.7,75.6l-.3-.2c-.8,0-2-.6-2.1.6.6,0,1.4,0,2.1-.2l.3-.3ZM185.8,72.5c-.3,0-.3-.2-.3-.2h-.3c-1.1.2-2,.5-3,.5s-2.7.8-4,1.1c0,0-.3,0-.3.2,0,0,.3.3.5.3,2.4-.5,4.9-.5,7.2-1.5l.3-.3Z"/>
  <path class="cls-1" d="M269.1,73.3c-1.8.3-3.3,1.4-4.4,2.7-3,1.1-8.4,3.2-9.6,3.8q-.3.5-.3.6c.3,0,.6.5.6.5,1.4-.5,2.9-1.1,4.6-1.5v.2h-.2c-1.8.3-3,1.7-4,2.9h-.5c-1.8-.2-2,1.5-3,2l-4.4,1.5c-3,1.8-6.1,3-9.4,3.8-2.4.5-4.9.8-7.5,1.4h-1.5c-2.1,1.5-4.1.5-5.9-.2-1.7-.6-3.5-1.2-4.3-3.2-.2-.6-.5-1.1-.6-1.8-3-3.2-2.6-6.8-1.8-10.5.3-2.1,1.2-4,1.8-6.1v-.3q-.5-.5-.6-.2l-10.8,7.6c-2.1,1.2-4.3,2.6-6.1,3.8-2.3,1.7-4.4,3.7-6.8,4.9-2.6,2-5.5,3.5-8.2,5.2-.5.2-1.1.6-1.5.6-1.7,0-3.3.2-5,0-4.1-.8-5.6-3-6.2-7.6-.2-1.7.5-3.5,1.1-4.7,1.1-1.5,2.6-3.2,3.7-4.9,3.2-3.8,6.8-7.2,10-10.3,3.2-3.2,6.7-5.5,10.5-8.2,3.2-2.1,6.8-3.2,10.5-4.3,2.1-1.1,6.7,1.1,7.8,2.9.8,1.1.6,2.3-.5,2-4-1.2-7,.8-9.4,1.5-3.8,2-6.4,4.6-9.4,7.3-1.4,1.8-3.3,3.3-5.3,5.3-2.9,2.1-4.7,4.7-7.2,7.2-1.2.6-.6,2.1-1.5,2.7q-3,3-2.3,3.5c1.4,0,2.4-.9,3.7-1.4,4.4-2.1,8.7-4.9,12.6-7.8,4.4-2.7,8.7-5.8,12.9-8.8,3.2-2.3,6.2-4.3,9.4-6.2.8-.3,1.2-.8,1.7-.9.3-.3.8-.3.9-.3,1.2,1.8,2.9,1.2,4.3,2,.2.3.6.3,1.1.5-.9,1.2,1.1,1.2,1.1,2.3-.3.8.5,2-.3,2.4-.8,1.5-.6,3.3-1.1,4.7-1.1,2-2,4.3-2.7,6.2-.6,1.2-1.2,2.4-1.5,3.8,0,1.4-1.7,1.8-.9,3,1.4.5,2.4.5,3.8.5,3.8,0,7.6-.9,11.4-2.4l8.2-3.7c8.4-3.2,16.4-6.7,24.8-9.3,1.8-.5,4.1-.8,6.1-1.5.5,0,.8,0,1.2-.3l.3.5c-.2.2-.2.6-.2.6-.2.2-.5.3-.6.6-2.7,0-5.6,1.1-8.1,2v.2c1.2.5,2.4.6,3.5.9,0,0-.2.2-.5.6-1.1.2-2.4.6-3.3,1.8ZM202.3,73.3h-.3v.3l.3-.3ZM203.1,72.2c-.2,0-.5.6-.5.8.3,0,.5,0,.5-.8ZM205.2,70.9c-.8,0-1.5.8-2,1.4,1.1,0,1.8-.5,2-1.4ZM207.7,69.3c-.8,0-1.5.5-2.1,1.5,1.4.2,2-.5,2.1-1.5ZM210.3,67.8c-1.1,0-2,.2-2.1,1.2.6,0,2-.2,2.1-1.2ZM212.5,66.1c-1.2,0-1.8.5-2.3,1.7,1.1,0,1.7-.5,2.3-1.7ZM215,64.6c-1.2.2-2,.5-2.3,1.5,1.1,0,1.7-.6,2.3-1.5ZM217.3,63.1c-1.4-.2-1.7.3-2.3,1.5.9,0,1.8-.3,2.3-1.5ZM219.4,61.6c-1.1,0-1.8.3-2.1,1.4,1.1.2,2-.3,2.1-1.4ZM220,61h-.2v.2l.2-.2ZM245.9,82.7c-1.1,0-2.1-.3-3.3,0-3,.6-5.9,1.4-9.3,2.1-.2,0-.3.3-.9.6v.3s0,.2.3.2c0,0,0,.2.3.2,2.1-.3,4.1-2.1,6.8-.6h.5c1.5-1.1,4.1-1.1,5.6-2.7ZM247.2,78.5c0-.5-.3-.5-.5-.5h-.3c.3.5.5.5.5.5h.3ZM248.1,82.4c-.2,0-.3,0-.2.5,0-.2.2-.2.2-.5ZM250.1,82c-.2,0-.2-.3-.3-.3-.6,0-1.1.3-1.1.8h1.2s.2-.2.2-.5ZM249.8,77.2h-.5l.5.3v-.3ZM252.1,76.2c-.5.3-1.7-.2-2.1.9h1.4c.6,0,.8-.3.8-.9ZM256.2,74.8c-1.7-.2-2.7,0-3.8,1.4,1.2.3,2.7-.2,3.8-1.1v-.3ZM260,73.3c-1.5-.3-2.6.3-3.8,1.4,1.7.2,2.9,0,3.8-1.4ZM260.3,79.2c-.2,0-.3.2-.3.2,0,0,.2-.2.3-.2ZM262.6,72.2h-1.8c-.2,0-.3.8-.3,1.1.6,0,1.4.3,2.1-1.1ZM269.3,70.4h.2c-2.6-.5-4.7.6-6.8,1.7v.2c2.3-.2,4.4-.8,6.7-1.8ZM266.1,73v-.2h-.3l.3.2ZM274.3,69.3c-.3.3-.6.8-.6,1.1h-.2c-.6-.5-1.1-.5-.6-1.1.8-.3.9,0,1.4,0ZM274.5,69.3q0-.3.3-.3c-.2.2-.3.2-.3.3Z"/>
  <path class="cls-1" d="M331.2,73.6c0,.3-.8.5-.9.5-2.6.3-4.7,1.5-7.3,2.6-3.8,1.7-7.6,3-11.3,4.6-.5.3-1.1.3-1.2.6-3,2.3-6.8,2.9-10,4.7-3.3,1.4-6.7,2.9-9.9,4.4-4.6,2.6-9.6,4.4-14.9,5.2-.9.3-1.5.3-2.1,1.1-3,1.2-5.6.2-8.2-.8-1.7-.5-2.9-1.2-4-2.3-1.8-1.4-2.6-3.3-3.2-5.2-.6-3.3-.6-4,0-6.7l1.1-2c2.4-5.5,6.1-9.9,10.7-13.5,4.3-4,8.7-7.5,13.8-10.2,1.4-1.1,3.5-2,5.5-2.3,1.4-.6,3.2-.8,4.6-1.4,2-1.4,3.7-1.7,5.5-.5.3.5.8,0,1.4.5.6.2,1.5.3,1.7.6,1.2,1.1,2,2.6,2.4,3.3,1.2,2.1,1.2,4.3-.3,5.9-2,2.4-3.2,5.2-6.2,6.4l-2.1,1.4c-4.1,3.3-9.1,4.9-14.2,5.6-1.4.6-3,.5-4.4.5-2,0-4.4-.5-6.8-.5s-.8,0-1.4.6c-2.4,3.5-5.5,6.7-6.8,10.7-.5,1.5.2,2.4,1.2,2.9,1.7.5,3.7,1.4,5.2.5,3.3,0,6.7-1.1,9.7-1.8,2.6-.5,5.3-2.1,7.8-2.9,2.9-1.4,5.2-2.6,7.8-4q.8.9,1.5,0c1.1-1.1,2.4-1.8,4-2.4.3-.6,1.1-.6,2-.9,5-2.1,10.2-4.7,14.9-6.7,1.5-.9,2.9-1.1,4.4-1.7,1.2-.5,2.7-1.2,3.8-2,2-.6,3.2-.5,4.4,1.2.5.5.9.8,1.4.9,1.1.6,1.7,2.3.8,3ZM271.7,73.9c.5.5,1.4,0,1.8,0,.6-.3,1.2-.3,2-.3v.3c1.4-.3,3.2-.5,4.4-.8,1.8-.6,3.2-1.1,5.2-2,4.1-1.2,7.5-3,10.7-5.5,1.7-.9,3-2.7,3.8-4.6.5-.5.5-1.4.5-2.1.5-.8-.2-1.1-.8-1.7-.5-.5-1.1.2-1.2.6-.2.6-.9.8-1.8.8-3.3.3-6.7,1.2-9.6,3-3.8,1.8-6.8,4.4-9.9,6.7l-4.1,4c-.2.2-1.1,1.1-.9,1.5Z"/>
  <path class="cls-1" d="M415.6,65.4c-.3.3-1.1.8-1.2.8-1.8.2-3.2,1.1-4.7,2-5,3.3-10.2,7.3-15.4,11-1.4,1.2-2.4,2.1-4,3-1.4.9-2.3,2.1-3.5,2.9-4.1,3.5-7.8,6.7-11.9,9.9-1.4,1.1-3,2-4.3,2.6-3,1.7-5.8,3.7-8.8,5.3-1.1.8-2.1,1.1-3.7,1.2-1.5.3-3.5.6-5,1.4-1.1,0-1.8,0-2.9-.6-5.6-3-6.8-8.7-5.8-13.8,0-.6.2-1.7.6-2.4,2-4.3,4.3-8.7,6.4-12.9,1.7-2.7,3.2-5.6,5-8.4.5-.5,1.1-1.5,1.1-2.3-1.1.5-2,1.4-2.9,2.3-2,2.7-4.4,4.6-6.4,6.8-2,2.1-3.8,4.3-5.5,6.7-3.3,4-7.2,7.8-10.8,11-.6.5-1.2,1.1-1.7,1.2-1.2,1.8-2.6,3.2-4.4,4.3-.9.2-1.2.8-1.7.9-2,1.8-4,2.4-6.2,3.3-1.1.3-2.1.2-3.2,0-3.8-1.1-6.4-5-6.5-8.5-.5-2.6.5-5.2,1.5-7.6,2.3-5.5,5-10.5,8.5-15.4,1.5-2.1,3.7-4.6,5.6-6.2,3-3,6.1-6.4,9.4-9,2.3-1.5,5-2.9,7.6-2.9,2.9.5,5.3.6,7.9,1.8,1.2.9,2.6,1.5,3.7,2.6q1.2.6,2.4,0c.3-.2.6-.6.8-.8,0,1.1,0,1.8-.5,2.4-.3.6,0,1.1.3,1.4.2.2.3.5,1.1.2l.9-.5c2.7-3.3,6.4-5.9,8.8-9.9,1.2-1.1,2.3-2.1,3.5-3,2.1-1.8,3.7-4.4,5.3-6.8,3-3.5,5.9-7.3,8.5-10.7,1.5-1.8,2.7-3,2.6-5.3,0-.3.2-.9.5-1.2,2.4-2.6,5-5,7.2-7.5,2.4-2.3,4.9-4.9,6.7-7.8,1.4-1.7,3.2-3,4.6-4.3,1.8-1.5,4.3,0,4.4,1.8,0,.8,0,1.5-.2,2-.3.6-.3,1.7,0,2.3.6,1.1.2,2.1-.9,3-1.4,1.2-2.7,2.7-4,4-4,3.8-8.1,7.5-10.8,11.9-1.1,1.5-2.9,3-4.3,4.4-1.8,2.9-4,5.9-5.9,8.5-2,2.4-3.3,5.2-5.5,7.5-3.2,4-6.1,8.4-9.3,12.8-1.1,1.2-1.7,3.2-3.5,3.5-.2,0-.2.6-.2.6.2,1.4-.3,2-1.2,2.6-.6.8-.8,2.3-1.2,3-2,2.7-3.2,5.6-5.2,8.2-1.1,1.2-1.8,3.2-2.6,4.9-.5,1.1-1.1,1.8-1.8,3-1.8,2.7-3,5.9-4.1,9.1-.8,3.3-.2,4.3,3.2,2.9,3.7-.6,7.5-2.6,10.7-4.9,4.3-2.7,8.7-5.8,12.3-9,6.4-5.5,12.9-9.9,19.3-15.1,4.3-3.3,8.8-5.8,13.2-8.5,1.1-.8,2.4-.5,3.5-.2.5,1.5,2.4.9,3.2,1.8.5.2.8.8,1.1.9s.3,1.5,0,1.7ZM342,69.2c1.4-1.2,2.4-2,3.5-3,1.5-2,2.9-3.7,4.6-5.5.2-.8,0-1.2-.6-1.2h-3.5c-5-.2-7.8,1.2-10.7,3.3-2.4,1.5-4.6,3.5-6.4,5.3-.9.5-1.4,1.5-1.8,2.3-.5,1.4-1.8,2.4-2.6,3.5-3,3.3-5.2,6.4-7.6,10.3-1.4,2.4-2.1,5.5-3,8.2-.3.5,0,1.1.2,1.2.5,0,.8,0,1.1-.2l6.2-4.1c2.6-2.1,5.3-4.7,8.2-7.2,4.3-4.3,8.8-8.7,12.5-13.1ZM352.2,62.2c-.2-.3-.8-.5-1.2,0-.9.8-1.7,1.7-2.1,2.6l-10,11.1c-.2.3-.6.8-1.2,1.4-.5.8-1.4,1.5-2,2.4.8-.5,1.5-.6,2-1.1,3.8-2.7,6.8-6.2,10-9.4,1.4-1.4,2.6-2.9,3.8-4.3l1.1-1.2c.2-.2,0-.9-.3-1.5ZM356.7,54.6l4.1-4.7c.2,0,.6.2,1.4.2-.3-1.2,0-2,.8-2.4,1.4-1.7,3-3,4.7-4.7.6-.6,1.1-1.7,2-2.4,1.2-.8,2.3-1.5,2.9-3,0-.2.9-.2,1.1-.5.3-.6.5-1.1.9-1.2,0-.5.2-.5.2-.5,0,.5.3.6.3.6-.3,1.4-.5,2.7-2,3.5-1.5,1.2-3,3-4.6,4.3-1.8,2.3-3.5,4.3-5.6,6.2,0,.2-.3.2-.6.2v.3c-1.4,1.5-2.1,3.2-4,4.4-.5.5-1.1,0-1.5-.2ZM386.3,79.7c-1.1,0-1.8.6-2.6,1.4,1.2.2,2-.3,2.6-1.4ZM389.2,76.6c-.8,0-1.2.6-1.2,1.4q1.2,0,1.2-1.4ZM402.8,67.8c1.2-.6,2.4-1.5,3.5-2.4-1.2,0-2.4.3-3.8,1.4-2,1.1-3.8,2.4-5.5,3.8-1.8.5-2.7,1.5-3.8,2.6-1.2,1.2-2.9,1.8-4,3,1.5.5,2.1-.2,3.5-.8,3.2-2.6,6.7-5.3,10-7.6Z"/>
  <path class="cls-1" d="M458.9,75c-.2-.3-7.2,1.7-7.3,1.7-.3.8-1.1,1.1-1.8,1.1-1.8,0-3.8.2-5.8.5-2.6.3-5.3.3-8.2.3-4.6,0-4.4-.6-7.2,3.3l-5.3,5.6c-.3.5-.3.6-.6.9-4.4,2.7-8.1,6.2-12.6,8.7-3.2,1.7-6.4,2.6-9.9,2.6-6.2-.5-9.6-5.3-9.6-10,.2-1.2.2-2.7.9-4.1,1.2-5.6,3.7-10.5,7.3-14.8,1.7-2,3-4.1,4.9-6.1,1.5-1.2,2-2.9,2-4.3-.2-1.8.2-3,1.1-4.3,1.1-1.2,2.1-2.3,3.3-3.2,2-1.1,4.1-1.8,6.1-2.6.8-.6,1.8-.6,2.9-.6,1.4-.3,2.7-.3,4.3,0,1.2,0,2.3,0,3.3-.5,2.1-.8,3.8.5,5.6,1.1.8.2.8,1.4,0,1.8-.3,0-.9,0-.5.5.6,1.2,1.4,2.1,2.1,3,3.3,3.5,3.5,7.8,2.4,11.9-.6,1.7-1.1,3.5-2,5.3,2.4.6,5,.6,7.5,0,3.7-.6,7.3-1.4,11.1-2.1,2.1-.8,4.3-1.1,6.8-1.7,1.2-.5,2.4-.9,3.2-1.8,1.4-.6,2.6-.5,3.8-.6.5-.5,1.4,2.1,1.4,2.3l-9.3,6.1ZM421.9,77.4c-.2-.2-.6-.2-.8-.6-5.5-1.1-9.4-4-12.9-8.1-.8-.8-1.4-.8-1.5-.2-1.2,2.1-2.7,3.8-3.5,6.4-1.4,2.9-2.7,5.6-4.4,8.5-1.2,2.4-2,5.5-3.2,7.8-.5.9.5,1.7,1.4,2h2.4c1.1.3,2.6-.3,4.3-.9,5.6-2.7,10.5-6.2,14.9-10.2,1.2-1.2,2.1-2.3,3.8-3.7.2-.3,0-1.1-.5-1.1ZM428.2,54.1c-.2-.3-.6-.6-1.2-1.1-.3,0-.8-.2-.9,0-2.3,1.2-4.1,2.3-5.9,3.8-2.1,1.2-4,2.9-5.9,4.4l-3.3,3c-.8.6-.8,1.2,0,1.8.3.5.9.9,1.1,1.4,1.2,1.5,3.5,2.1,5.2,2.7,2.7,1.2,5.5,1.5,8.1,2,1.5.2,2.6-.3,3-1.2,1.7-2.9,2.9-5.6,3-8.7.6-3.3-.8-6.2-3-8.2Z"/>
  <path class="cls-1" d="M494.1,46.1c.6,0,1.1-.2,1.5-.5.5.3.8.3,1.4,0,.2-.2.9-.2,1.4-.2h7.5c.8,0,1.4,0,1.8-.5h1.1c3-.3,5.9-.3,8.8-.3s.9,0,1.4-.2c.5-.3.8-.3,1.2-.3h9c1.2,0,2.3-.2,3.2-.6.5,0,.8-.3,1.2-.3.5-.2.6.3,1.1.3h4.1c.2,0,.5-.3.6-.3q.3-.2.5,0c1.7.5,1.8.5,3.2,0,.3-.2.5-.2.8,0,.6.5,1.5.3,2.4.3.3-.3.3-.5.5-.5.5-.9.8-.9,1.2,0q-.3,0-.5.2l.2.3c.3-.3.3-.5.3-.8.2,0,.5,0,.6.3.6.2,1.1-.8,1.8-.3.6.3,1.5,0,2.3,0,.6.3,1.5,0,2.3-.2.6-.5,1.4-.3,2-.3s.5.3.8.8c0,.2,0,.6.5.9.6.6,1.4,1.8,1.4,2.4v2.1c0,.6-.3,1.1-.9,1.1h-29.4c-.5,0-.9,0-1.2.3-.3.2-.8.2-.9.2h-4.9c-2.3.2-4.3.2-6.2.2h-.9c-.8.5-1.4.5-2.1.5h-8.4c-.6,0-1.5,0-2,.5-.3.3-.8.3-.9.3h-4.4c-.8,0-2-.3-2.9.5-.2.2-.5,0-.9,0-1.1,0-2.4,0-3.8.2-.8,0-1.7-.2-2.3.3-.3.2-.8.2-.9.2h-3.8c-.9,0-1.7.3-2.1.5-1.1,0-1.8.8-2.3,1.4-.5.9-1.1,1.4-1.5,2.3-.3.9-1.2,1.4-1.5,2.3-1.4,2.3-3.2,4.6-4.4,7-.5.5-.9.9-1.1,1.4-.5.5-.9.9-.9,1.7s0,.5-.3.5c-.6.9-1.1,1.8-1.5,2.9-.5.6-.8,1.4-1.4,2-.3.3-.3.8-.5.9-.6,1.2-1.1,2.3-1.5,3.2,0,1.4-1.4,1.8-1.7,3,0,.2-.2.3-.2.6-.3,1.4-.9,2.4-1.7,3.7-.2.6-.2,1.4-.6,2-.5.5-.3,1.2-.3,1.8s0,.8-.2.9c-.5.5-.5,1.4-.5,2s0,.8-.3,1.2c-.2.5.3.6,0,1.1,0,.3-.2.5-.2.8s0,.5.2.6c0,0,.3.3,0,.5v.3c-.5.6-.2,1.1-.2,1.8s.2.5.5.5c.5.2.6.5.6.9v.9c0,.2.5.5.5.5.8.2,1.2.2,1.7.2h1.1c.9.5,1.8.5,2.7.5s1.1-.2,1.5-.5c.8-.2,1.4-.6,2.1-.6s.5-.3.5-.3c.5-.2.9-.6,1.4-.9.2-.2.6,0,1.1-.2.5-.5,1.4-.8,1.8-1.2.8-.6,1.4-1.1,2.3-1.5.6-.3,1.4-.9,2-1.7.5-.2.8-.2,1.2-.5h.5c.9-.9,2-1.4,3.2-2,.5,0,.6-.3,1.1-.5.3-.2.5-.6.8-.9,0-.2.2-.5.5-.5.9-.5,1.7-1.4,2.4-2,.5-.5,1.1-.8,1.4-.9l1.4-1.4c1.1-.5,1.8-1.2,2.7-2.1.5-.5,1.1-1.1,1.8-1.4.5-.2.6-.9,1.4-.9v.5c0,.5,0,.9-.5,1.4s-.8.8-.8,1.2c-.5,0-.5.2-.6.6v-.2c-.5,0-1.2.2-1.4.6-.5.5-.9.8-.9,1.4-.5,0-.8,0-.8.5-.2,0-.6,0-.9.3-1.1.9-2.4,1.5-3.3,2.7-.5.5-1.1,1.1-1.8,1.2-.6.5-1.4.9-2,1.4-.8.3-1.2.9-2.1,1.4-.5.3-.9.8-1.1,1.2-.5.5-1.2.5-1.7.9s-1.1.5-1.4.9l-.2.2c-.3.3-.5.3-.8.3s-.2.2-.5.5v.2c.3.3.5.3.5,0,.5-.2.8-.5.8-.9h1.8c.2,0,.5-.2.6-.5,0-.5.3-.5.8-.6.5-.3.9-.5,1.4-.9.6-.3.9-.8,1.4-1.2.6-.2,1.1-.5,1.5-.9.8-.9,1.8-1.1,2.4-2,.9-.6,1.7-1.5,2.7-1.8.5-.6,1.2-1.4,1.8-2v-.3c.5,0,.8-.2.8-.6.6.2,1.1-.3,1.5-.5.3,0,.5,0,.5.2v.5c-1.1.9-2,2.1-3.2,2.7-.5.3-.6.8-1.1.9-.5.3-.8.5-1.2.8-.2,0-.2.2.5.3.3,0,.5.3.5.8v-.3c-.5.3-.5.5-.5.8-.5,0-.6.2-.6.6-.5,0-.8.3-.8.8-.2-.3-.2,0-.5.2h.3c.2,0,.2-.2.2-.5.5,0,.8-.2.8-.5.2-.2.5-.2.5-.6h.6v.9c-.5.6-.9,1.4-1.5,2-.8,0-.9,1.2-1.7,1.4-.6.5-1.2,1.2-1.7,1.7-1.4.5-2.1,1.8-3.2,2.3-1.4.5-2.3,1.2-3.5,1.7-.6.5-1.1.8-1.5,1.2-1.4.9-2.7,1.4-4.3,2q0,.3-.3.3c-.6-.3-1.5.2-2.3.5-.6.2-1.4.2-2,.5-.8.2-1.4.2-2.1.2s-.3,0-.6.3c-.6.5-1.4.5-2,0-1.2,0-1.8-.8-2.6-1.4-.5-.5-1.1-.9-1.8-1.4-.5-.5-.9-.9-1.4-1.2-.5-.5-.6-1.1-.9-1.5-.2-.5-.6-.9-1.1-1.4-.3-.5-.5-.6-.6-1.1-.3-.3-.5-.5-.5-.9,0-.9-.8-1.7-.8-2.3.3-2.6,0-4.9,0-7s0-1.7.5-2.3c.3-.5.3-1.2.3-1.7s.2-.9.5-1.4c0-.2,0-.5.2-.5,0-.6-.2-1.1.2-1.5.5-.9.5-1.8.9-2.7.8-1.1,1.2-2.3,1.7-3.2-.5-.6,0-.9.5-1.1.2,0,.2-.3.2-.5.3-.3.3-.5.3-.5l.2-.3c.8-1.4,1.4-2.4,2.1-3.8v-.9h.2c.5-.5.8-.9.9-1.1.3-.5.5-.9.5-1.4.3-.5-.2-.8-.2-1.2s.2-.2.2-.2q.9,0,1.2-.3c.2-.2.5-.9.5-1.4,0,0,.2,0,.2-.2.3-.3,0-.3-.2-.3v-.6c0-.3.2-.5.5-.8.2.3.2.5.2.5.5,0,.5-.2.5-.5q.3,0,.5-.2s-.2,0-.2-.3c0,.3-.3.5-.3.5h-.6c0-.9.5-1.4,1.2-1.8,0,.3,0,.5.3.5h.2c-.2-.2-.5-.5-.6-.5.2,0,0-.2.2-.3.5-1.2.9-2.3,1.7-3.2.6-.9.9-1.8,1.5-2.6v-.2s0-.3-.2-.3h-4.7c-1.7.9-3.5.5-5,.8-.9,0-1.8,0-2.7.5-.3.2-.8,0-1.2,0-1.2,0-2.6.2-3.8.2s-1.5,0-2,.3c-.3.2-.8.2-.9.2h-3.7c-.3,0-.6,0-.9.3-1.1.6-2.3.2-3.7.5-.2,0-.5,0-.9.2-.5.3-1.1.3-1.5.3-1.2,0-2.3.2-3.5.2s-1.5,0-2.1.5c-.3.3-.9.3-1.2-.2-.5-.5-1.1-.3-1.8-.3s-.6-.2-.9-.6c-.6-.5-1.1-1.4-1.1-2.3v-1.8c0-.5.2-.8.5-.9.6-.8,1.5-1.2,2.4-1.7.3-.2.8-.2,1.2,0,.5.5.9.5,1.4.3.2-.3.5-.3.6-.3,0-.2.3-.2.5-.2,1.1,0,2.4.2,3.7-.5h2.9c.8,0,1.2-.2,1.8-.5s.5-.2.8,0c.5.5,1.1.5,1.4.3.8-.5,1.5-.5,2.4-.5h3.7c.6,0,1.4,0,2-.5h.8c1.1,0,2.1,0,3.3-.3.2,0,.6,0,.9-.2.5-.3.9-.3,1.4-.3h6.5c.9,0,1.5,0,2-.5.3-.2.5-.2.8,0,.6.5,1.4.5,2,.5.9,0,2.1-.2,3,0,.9,0,1.5-.5,2-1.1.5-.5.8-1.4,1.4-1.8.6-.8,1.4-1.2,1.5-1.8,1.2-1.7,2.3-2.7,3.7-4.1.8-.6.9-1.5,1.7-2.3.6-.5,1.4-1.1,1.8-1.8,2-2.7,4.3-4.7,6.5-7,.6-.6,1.4-1.4,1.8-2,.5-.3.6-.8.9-.9.2-.8.9-.8,1.4-.8s.6.3.9.3.5.2.8.2c.8.3,1.2.5,1.4,1.2.3.5.8.9,1.2,1.4.2.2.2.6.2,1.1s.3.9.3,1.5c-.3,2.7.2,2.3-1.8,4.1-1.4,1.7-2.9,3-4.6,4.6-.5.5-1.1,1.2-1.5,1.5-.8.9-2.1,1.2-2.6,2.3-.5.9-1.4,1.7-1.8,2.3-.5.5-.6.9-.5,1.4-.2,0-.5,0-.6.3l.2.2c.3-.2.5-.2.3-.5h7.3ZM458.2,50l-.2-.3h-.8c-.2,0-.2.3-.5.3.3.2.5.2.8.2h.2c.3,0,.5,0,.5-.2ZM457.5,74.7h.2s.3.2.3.5c-.3,0-.5-.3-.5-.5ZM461.7,50.2s.2-.2.5-.2c-.3,0-.5-.3-.8-.3h-1.8l-.2.3s0,.2.2.2c.3,0,.8,0,.5,0h1.7ZM459.8,69.9l.2-.3q.3.3.3.5t-.5-.2ZM463,64.5c0-.3.2-.3.5-.3v.5c-.3,0-.5,0-.5-.2ZM470.5,48.6c-.5,0-.8,0-.9.2-.5,0-.8.3-1.2.3h-2.7c-.6,0-1.2.2-2,.2s-.2.3-.2.5c0,.3.2.5.2.3.5-.3.9-.3,1.5-.3h5.3c.5,0,.6-.2.9-.2s.5-.3.5-.3c.2-.2.2-.5.5-.5,0-.2-.5-.2-.9-.2-.3.5-.8.5-.9,0ZM465.6,102.8l-.2.2s0,.2.2.5c.8.2,1.2.6,2.1.5.5,0,.9.2,1.4.5,0,.2.2.2.5,0,.6-.3,1.4-.3,1.8-.5l.2-.3c0-.2-.2-.2-.2-.2-.5,0-.9,0-1.2-.3-.5-.2-.6-.2-1.1,0-.8-.3-1.2-.3-2.3-.3h-1.2ZM484.5,48.2l.3.2q.2-.2.2-.5c.8,0,1.4-.2,1.8.3.2,0,.5.2.5,0,.9-.5,1.8-.3,2.7-.3h2c.9,0,1.8,0,2.7-.5,0-.2.3,0,.5,0,.3,0,.5.3.5.3,1.1-.8,2.4-.3,3.7-.5h3.7c.6-.9,1.8-.5,2.7-.5,1.5,0,2.9,0,4.4-.3h.8c0-.2,0-.5.2-.5.3,0,.3.3.5.3.3,0,.5.2.5.2.5-.5.8-.2,1.2,0,.6.3,1.4.3,1.8,0,.6-.5,1.4-.5,2.3-.5h3.5c1.4,0,2.6.3,4-.5h.2c.5.5.9.3,1.4,0,.3,0,.8.3.9.3.3,0,.8-.3,1.1-.5h.9c.5.2.9.6,1.7.2.9-.2,2-.2,2.9-.2h11.1c.3,0,.3-.3.5-.3q-.2-.2-.5-.2h-13.4c-2.3-.3-4.4,0-6.5,0s-.9,0-1.1.2c-.3.3-.5.3-.8,0-.6-.5-1.1-.5-1.8,0-.5.3-.9.3-1.1.3h-7.9c-.3,0-.8,0-.9.2,0,0-.3.3-.3.5-.2,0-.5-.2-.5-.2-.2,0-.5-.3-.6-.3-.5.5-1.4.5-2.1.5h-4.7c-.2,0-.6,0-.9.3-.6.5-1.5.2-2.4.2-2.1.3-4.1.3-6.1.3s-.8-.3-1.2.2c-.5.3-1.1.3-1.5.3h-5s-.2,0-.5.2c-.2,0-.2.3-.2.5-.3,0-.5,0-.8.3ZM489.2,93.2c.3,0,.5,0,.5.2,0,.3-.2.3-.5.3v-.8.3ZM494.2,50.2c.3,0,.3-.2.3-.2,0-.3-.3-.3-.3-.3h-.6c-.3,0-.3.3-.5.3.2,0,.2.2.5.2h.6ZM493.6,48.8h.2v-.2l-.2.2ZM494.7,85.8c0,.2-.2.5-.2.5-.3.2-.3-.3-.5-.5v.2h.6v-.2ZM495.1,85.8h-.5v.2-.6c.3,0,.5,0,.5.5ZM497.1,81.1c0,.5-.2.6-.6.6,0,.2-.2.5-.6.6,0-.5.2-.6.6-.6,0-.5.2-.6.6-.6ZM496.4,48.6l-.3.2h.3v-.2ZM497,50c-.3,0-.3-.3-.5-.3s-.2.3-.5.3c.3,0,.3.2.5.2s.2,0,.5-.2ZM497.4,80.6l.2.2q-.2.3-.5.3,0-.3.3-.5ZM498,50.2s0-.2.3-.2c-.3,0-.3-.3-.3-.3-.2,0-.2.3-.2.3,0,0,0,.2.2.2ZM498.5,79.4v-.2c.3,0,.3-.3.5-.3l.3-.2c.2.2.2.5.2.6-.2.3-.2.5-.6.5,0-.2-.3-.2-.3-.5ZM501.2,49.6l-.2-.3h-.3c0,.3.3.3.3.3h.2ZM503.5,49.6c0-.3-.2-.5-.5-.3-.2,0-.5,0-.2.3,0,0,.2.2.2,0h.5ZM504.9,49.6q-.2-.3-.5-.3c0,.3.3.3.3.3h.2ZM504.7,48.2q-.3,0,0,.2s0-.2.2-.2h-.2ZM506.6,48.3v-.2s0-.3-.3-.3c0,0-.2,0-.5.3,0,0,0,.2.3.2h.5ZM507,49.1c-.3,0-.5.2-.8.2.3.3.5.3.8.5.2,0,.3,0,.6-.2v-.3c-.3,0-.5-.2-.6-.2ZM508.2,48.3c.5.3.8.3,1.2,0l.2-.2c-.2,0-.2-.3-.5-.3-.5,0-.6,0-1.1.3.2,0,.2.2.2.2ZM508.7,49.2q0,.3.3.3c0-.3-.3-.3-.3-.3ZM515.5,48.6h-3.7q-.2.2-.2.5c0,.5.2.5.2.5.5-.3.9-.5,1.2-.5h4.4c.3,0,.8,0,.9-.3h.3l-.3-.2c-1.1,0-2,0-2.9-.3v.3ZM512.3,47.7h.3v-.3h-.3v.3ZM517.8,47.9s0-.2.2-.2c0-.3-.2-.3-.5-.3-.3-.2-.8,0-1.2,0,0,0-.3,0-.3.3h.3c.2.2.6.2.6.2h.9ZM524.7,47.9h-1.4c-.8,0-1.4.9-2.1.8q-.2,0-.2.2c.6.5,1.5.3,2.3-.2.2-.3.6,0,.9.2.5,0,.6,0,.6-.5s0-.2-.2-.5ZM527.1,47s0-.2-.2-.2v.5l.2-.3ZM529.1,48.3c.3,0,.3-.2.3-.2,0-.3-.3-.3-.3-.3h-2l-.2.3s0,.2.2.2h2ZM529.8,47.3h.5s.2-.3.5-.3c-.3,0-.5-.2-.5-.2h-1.7c-.2.2.3.5,0,.5h1.2ZM531.8,48.2v-.3c-.2,0-.2.3-.2.3,0,0,0,.2.2.2v-.2ZM532.3,46.8q-.2.2,0,.5l.3-.3s0-.2-.3-.2ZM534.4,47.3h.2c.3,0,.3-.3.3-.3q0-.2-.3-.2c-.2,0-.5,0-.5.2l.3.3ZM537.8,47.3c.3,0,.3-.3.3-.3,0,0,0-.2-.3-.2,0,0,0,.2-.2.2.2,0,.2.3.2.3ZM539.3,47.9c-.2,0-.5.3-.5.3q.3.2.5.2h1.2q.2,0,.5-.2c-.3,0-.5-.3-.8-.3h-.9ZM547,45.1s-.2-.2-.5-.2c0,0-.2,0-.5.2.3,0,.3.3.3.3.2,0,.5,0,.6-.3ZM548.3,45.4v-.5c-.3,0-.3.2-.3.2,0,0,0,.3.3.3ZM549.3,45q-.3.2,0,.5s0-.3.2-.3c-.2,0-.2-.2-.2-.2Z"/>
</svg>