<?xml version="1.0" encoding="utf-8"?>
<!-- Generator: Adobe Illustrator 28.1.0, SVG Export Plug-In . SVG Version: 6.00 Build 0)  -->
<svg version="1.1" id="Layer_3" xmlns="http://www.w3.org/2000/svg" xmlns:xlink="http://www.w3.org/1999/xlink" x="0px" y="0px"
	 viewBox="0 0 200 200" style="enable-background:new 0 0 200 200;" xml:space="preserve">
<style type="text/css">
	.st0{fill:#EA4C85;}
	.st1{filter:url(#Adobe_OpacityMaskFilter);}
	.st2{fill:#FFFFFF;}
	.st3{mask:url(#mask-2_00000018212626640377160050000013936384488410197150_);fill:#FFFFFF;}
</style>
<g>
	<g>
		<path id="path-1_00000090984005592939459300000000210121692991405469_" class="st0" d="M47.7,157.2l-4.2-112
			c-0.1-3.7,2.7-6.8,6.4-7.1l95.2-6c3.8-0.2,7,2.6,7.2,6.4c0,0.1,0,0.3,0,0.4v122c0,3.8-3.1,6.8-6.8,6.8c-0.1,0-0.2,0-0.3,0l-91-4.1
			C50.7,163.6,47.9,160.7,47.7,157.2L47.7,157.2z"/>
	</g>
	<defs>
		<filter id="Adobe_OpacityMaskFilter" filterUnits="userSpaceOnUse" x="71.6" y="32.2" width="66.7" height="109.9">
			<feColorMatrix  type="matrix" values="1 0 0 0 0  0 1 0 0 0  0 0 1 0 0  0 0 0 1 0"/>
		</filter>
	</defs>
	
		<mask maskUnits="userSpaceOnUse" x="71.6" y="32.2" width="66.7" height="109.9" id="mask-2_00000018212626640377160050000013936384488410197150_">
		<g class="st1">
			<path id="path-1_00000107561031302376796130000017032695987442303410_" class="st2" d="M47.7,157.2l-4.2-112
				c-0.1-3.7,2.7-6.8,6.4-7.1l95.2-6c3.8-0.2,7,2.6,7.2,6.4c0,0.1,0,0.3,0,0.4v122c0,3.8-3.1,6.8-6.8,6.8c-0.1,0-0.2,0-0.3,0
				l-91-4.1C50.7,163.6,47.9,160.7,47.7,157.2L47.7,157.2z"/>
		</g>
	</mask>
	<path class="st3" d="M123.9,48.8l0.7-15.6l13.1-1l0.6,16.1c0,0.6-0.4,1-1,1.1c-0.2,0-0.5-0.1-0.7-0.2l-5-4l-6,4.5
		c-0.4,0.3-1.1,0.3-1.4-0.2C124,49.3,123.9,49.1,123.9,48.8z M107.2,83.3c0,2.7,17.9,1.4,20.3-0.5c0-18.1-9.7-27.6-27.4-27.6
		s-27.7,9.6-27.7,24.1c0,25.2,34,25.7,34,39.4c0,3.9-1.9,6.1-6,6.1c-5.4,0-7.6-2.8-7.3-12.2c0-2-20.6-2.7-21.3,0
		c-1.6,22.8,12.6,29.4,28.8,29.4c15.7,0,28.1-8.4,28.1-23.6c0-27-34.5-26.3-34.5-39.7c0-5.4,4-6.1,6.4-6.1
		C103,72.7,107.6,73.2,107.2,83.3z"/>
</g>
</svg>
