<?xml version="1.0" encoding="utf-8"?>
<!-- Generator: Adobe Illustrator 28.1.0, SVG Export Plug-In . SVG Version: 6.00 Build 0)  -->
<svg version="1.1" id="Layer_2" xmlns="http://www.w3.org/2000/svg" xmlns:xlink="http://www.w3.org/1999/xlink" x="0px" y="0px"
	 viewBox="0 0 200 200" style="enable-background:new 0 0 200 200;" xml:space="preserve">
<style type="text/css">
	.st0{fill:#E44E28;}
	.st1{fill:#EC662B;}
	.st2{fill:#FFFFFF;}
</style>
<path class="st0" d="M52.2,153.3L42.9,37.5h111.2l-9.3,115.8l-46.3,13.9L52.2,153.3z"/>
<path class="st0" d="M52.2,153.3L42.9,37.5h111.2l-9.3,115.8l-46.3,13.9L52.2,153.3z"/>
<path class="st1" d="M144.8,46.8H98.5v113.5l37.1-11.6L144.8,46.8z"/>
<path class="st1" d="M144.8,46.8H98.5v113.5l37.1-11.6L144.8,46.8z"/>
<path class="st2" d="M68.4,104.7l-4.6-44h71.8l-2.3,13.9H77.6l2.3,16.2h51l-4.6,44l-27.8,9.3l-27.8-9.3l-2.3-23.2h13.9l2.3,11.6
	l13.9,4.6l13.9-4.6l2.3-18.5H68.4z"/>
<path class="st2" d="M68.4,104.7l-4.6-44h71.8l-2.3,13.9H77.6l2.3,16.2h51l-4.6,44l-27.8,9.3l-27.8-9.3l-2.3-23.2h13.9l2.3,11.6
	l13.9,4.6l13.9-4.6l2.3-18.5H68.4z"/>
</svg>
