<?xml version="1.0" encoding="utf-8"?>
<!-- Generator: Adobe Illustrator 28.1.0, SVG Export Plug-In . SVG Version: 6.00 Build 0)  -->
<svg version="1.1" id="Layer_2" xmlns="http://www.w3.org/2000/svg" xmlns:xlink="http://www.w3.org/1999/xlink" x="0px" y="0px"
	 viewBox="0 0 200 200" style="enable-background:new 0 0 200 200;" xml:space="preserve">
<style type="text/css">
	.st0{fill:#FBBD3B;}
	.st1{fill:#F49837;}
	.st2{fill:#FFD038;}
	.st3{fill:#EC6825;}
</style>
<g>
	<path class="st0" d="M46.1,119.9l-8.1,3l-0.4,24.2l28.2-10.3C56,133.6,49,127.9,46.1,119.9"/>
	<path class="st1" d="M50.4,94.3l-28.3,10.3L38,122.9l8.1-3C43.2,112,45,103.1,50.4,94.3"/>
	<path class="st2" d="M97.9,59.4c-36,13.1-59.2,40.3-51.8,60.6l130.3-47.6C169,52,133.9,46.2,97.9,59.4"/>
	<path class="st3" d="M124.6,132.9c36-13.1,59.2-40.1,51.8-60.6L46.1,119.9C53.5,140.4,88.6,146.1,124.6,132.9"/>
	<path class="st1" d="M176.4,72.3L46.1,119.9c2.6,7,12.3,10.5,25.9,10.5c13.3,0,30.3-3.3,48.1-9.8
		C156.1,107.5,181.4,86.2,176.4,72.3"/>
	<path class="st0" d="M150.5,61.8c-13.3,0-30.3,3.3-48.1,9.8c-36,13.1-61.3,34.4-56.3,48.3l130.3-47.6
		C173.8,65.3,164.1,61.8,150.5,61.8"/>
	<path class="st3" d="M143.3,148.4L143.3,148.4c-3.8,0-9.5-3.5-16.8-10.3c-8.7-8.1-18.6-19.9-27.9-33.3c-9.4-13.4-17-26.8-21.6-37.7
		c-5-11.9-5.7-19.2-2.1-21.8c0.8-0.6,1.7-0.8,2.8-0.8c2.9,0,8.6,2.2,19.2,12.6l0.2,0.2l0,0.3c-0.1,0.7-0.1,1.5-0.2,2.2l-0.1,1.5
		l-1-1c-11.4-11.5-16.4-12.7-18-12.7c-0.5,0-0.8,0.1-1.1,0.3c-1.6,1.1-1.7,6.5,3.2,18C84.2,76.6,91.8,89.8,101,103
		c9.2,13.2,19,24.9,27.5,32.8c9.2,8.6,13.3,9.5,14.7,9.5c0.5,0,0.8-0.1,1.1-0.3c1.6-1.2,1.7-6.9-3.8-19.4l-0.2-0.6l0.5-0.3
		c0.5-0.3,1.1-0.6,1.6-0.9l0.7-0.4l0.3,0.7c3.8,8.8,7.4,20,2.7,23.3C145.3,148.1,144.4,148.4,143.3,148.4L143.3,148.4z M143.3,147.1
		L143.3,147.1l0,0.7L143.3,147.1z"/>
	<path class="st3" d="M125.5,132.5l-0.1,0.7c-0.9,11.3-3.3,24.8-9.5,25.3c-0.1,0-0.3,0-0.4,0c-4.2,0-8.3-6.1-11.9-18.1
		c-3.5-11.3-6.2-26.6-7.6-42.9c-1.4-16.3-1.4-31.8,0.1-43.5c1.6-12.8,4.6-19.5,9-19.9c0.1,0,0.3,0,0.4,0c3.1,0,7.7,3.5,12.5,19.7
		l-3.1,0.6c-1.6-5.4-3.3-9.8-5-12.9c-1.6-2.8-3.1-4.3-4.3-4.3c0,0-0.1,0-0.1,0c-1.9,0.2-4.7,4.8-6.2,17.2c-1.4,11.6-1.5,26.8,0,42.9
		c1.4,16.1,4.1,31.1,7.5,42.2c1.5,5,3.2,9.1,4.8,11.9c1.5,2.6,3,4,4.1,4c0,0,0.1,0,0.1,0c1.8-0.2,5.2-5,6.7-21.8L125.5,132.5"/>
</g>
</svg>
