<?xml version="1.0" encoding="utf-8"?>
<!-- Generator: Adobe Illustrator 28.1.0, SVG Export Plug-In . SVG Version: 6.00 Build 0)  -->
<svg version="1.1" id="Layer_1" xmlns="http://www.w3.org/2000/svg" xmlns:xlink="http://www.w3.org/1999/xlink" x="0px" y="0px"
	 viewBox="0 0 200 200" style="enable-background:new 0 0 200 200;" xml:space="preserve">
<style type="text/css">
	.st0{fill:#46B7EA;}
	.st1{fill:#4CB37D;}
	.st2{fill:#EE7265;}
	.st3{fill:#E95025;}
	.st4{fill:#765FA6;}
</style>
<path class="st0" d="M99.9,100.1c0-14.5,11.7-26.2,26.2-26.2c14.5,0,26.2,11.7,26.2,26.2s-11.7,26.2-26.2,26.2
	C111.7,126.3,99.9,114.6,99.9,100.1z"/>
<path class="st1" d="M47.5,152.5c0-14.5,11.7-26.2,26.2-26.2h26.2v26.2c0,14.5-11.7,26.2-26.2,26.2S47.5,167,47.5,152.5z"/>
<path class="st2" d="M99.9,21.5v52.4h26.2c14.5,0,26.2-11.7,26.2-26.2s-11.7-26.2-26.2-26.2H99.9z"/>
<path class="st3" d="M47.5,47.7c0,14.5,11.7,26.2,26.2,26.2h26.2V21.5H73.7C59.3,21.5,47.5,33.3,47.5,47.7z"/>
<path class="st4" d="M47.5,100.1c0,14.5,11.7,26.2,26.2,26.2h26.2V73.9H73.7C59.3,73.9,47.5,85.7,47.5,100.1z"/>
</svg>
