<?xml version="1.0" encoding="utf-8"?>
<!-- Generator: Adobe Illustrator 28.1.0, SVG Export Plug-In . SVG Version: 6.00 Build 0)  -->
<svg version="1.1" id="Layer_3" xmlns="http://www.w3.org/2000/svg" xmlns:xlink="http://www.w3.org/1999/xlink" x="0px" y="0px"
	 viewBox="0 0 200 200" style="enable-background:new 0 0 200 200;" xml:space="preserve">
<style type="text/css">
	.st0{fill:#D34B47;}
	.st1{fill:#FFFFFF;}
</style>
<path class="st0" d="M125.1,180.2l1.6-26.7l4.4-7.5c0,0-10.1,4.1-26.9,4.1c-16.8,0-26.8-4-26.8-4l5,8.2l1.8,25.9c0,2.8,9.2,5,20.5,5
	C115.9,185.2,125.1,183,125.1,180.2 M120,55.6l3.4-13.3L142,22.7l-4.9-4.2l-19.7,20.9l-3.9,15.9c-2.9-0.1-5.9-0.1-8.8-0.1
	c-20.8,0-37.6,2.4-37.6,5.3c0,2.9,16.8,5.3,37.6,5.3c20.8,0,37.6-2.4,37.6-5.3C142.2,58.3,133.1,56.4,120,55.6"/>
<path class="st1" d="M118.1,63c0,0-0.7,0.2-2.9,0.2c-2.1,0-3.7,0-4.3-0.6c-0.2-0.1-0.3-0.4-0.3-0.6c0-0.4,0.3-0.6,0.6-0.7l0.3,0.5
	c-0.1,0-0.2,0.1-0.2,0.2c0,0.3,2.2,0.5,3.9,0.5c1.7,0,3.7-0.2,3.7-0.4c0-0.1-0.2-0.2-0.4-0.2l0.3-0.5c0.4,0.1,0.8,0.4,0.8,0.8
	C119.7,62.8,118.7,63,118.1,63"/>
<path class="st0" d="M142,22.8c0.5-0.5-4.5,9.5-5.8,8.3c-1.3-1.2,1.4-13.1,0.9-12.5c-0.5,0.5,0.2,1.9,1.6,3.1
	C140,22.8,141.5,23.3,142,22.8 M124.2,115c-0.4-4.2,9.3-10.4,6.8-10.6c-5.4,0.3-8,6.3-10.7,12.6c-1,2.3-4.4,12.1-6.6,10.9
	c-2.2-1.2,2.9-9.3,4.3-14.1c-1.7,1.2-7.7,5.9-9.3,1.5c-2.5,2.1-7.9,3.3-7.3-2.3c-1.3,2.4-4.3,5.7-7.9,4.3
	c-4.7-1.8,2.7-16.8,4.6-16.1c1.9,0.8-0.4,4.2-1,5.5c-1.3,2.9-2.8,6.6-1.8,7.4c1.7,1.3,6.3-4.9,6.4-5c0.9-1.1,3.3-8.6,5.3-7.7
	c2,0.9-4.9,10.7-2.4,12.7c0.5,0.4,2.7-0.2,4-1.7c0.8-0.9,0.6-2.9,3.4-9.6c2.8-6.7,5.3-15,7.2-14.4c1.9,0.6,0.3,4.9-0.4,6.5
	c-3.2,7.5-8.8,19.8-6.2,18.9c2.6-0.9,4-1,6.6-4c2.6-3,2.5-8,4.2-7.9c1.7,0.1,1.4,1.7,1,2.9c1.7-1.9,8-6,9.6-2
	c1.8,4.8-9.1,11.7-6.4,11.4c2.6-0.3,6.9-3.1,8.8-5.5l5-45.3c0,0-5.1,4.2-37.4,4.2c-32.3,0-36.8-4.1-36.8-4.1l4.3,41.4
	c2.3-6.5,7.7-19.6,16.2-19.1c3.9,0.2,9.1,7.7,4.6,7.9c-1.9,0.1-2.1-3.7-4.3-4.3c-1.6-0.4-3.8,0.9-5.3,2.3
	c-2.9,2.8-9.1,13.9-8.3,19.5c1,7.1,9.8-2.5,11.2-5.3c1-2,1.7-7.9,4-7.3c2.3,0.6-0.2,6.7-1.8,12.1c-1.8,6-2.8,12.4-5.1,11.7
	c-2.3-0.7,1.5-8.5,1.3-9.9c-2.2,2-6.2,7.1-11.3,4.6l2.7,25.7c0,0,7.1,5.6,28.4,5.6s28.7-5.5,28.7-5.5L136,113
	C133.3,115.6,124.7,120.3,124.2,115"/>
</svg>
