<?xml version="1.0" encoding="utf-8"?>
<!-- Generator: Adobe Illustrator 28.1.0, SVG Export Plug-In . SVG Version: 6.00 Build 0)  -->
<svg version="1.1" id="Layer_2" xmlns="http://www.w3.org/2000/svg" xmlns:xlink="http://www.w3.org/1999/xlink" x="0px" y="0px"
	 viewBox="0 0 200 200" style="enable-background:new 0 0 200 200;" xml:space="preserve">
<style type="text/css">
	.st0{fill:url(#SVGID_1_);}
	.st1{fill:url(#SVGID_00000149381782277807757910000006970796515019078815_);}
</style>
<linearGradient id="SVGID_1_" gradientUnits="userSpaceOnUse" x1="7.1928" y1="237.2519" x2="4.0895" y2="235.4686" gradientTransform="matrix(25 0 0 25 -24 -5765.5)">
	<stop  offset="0.18" style="stop-color:#2B56A3"/>
	<stop  offset="1" style="stop-color:#4678BC"/>
</linearGradient>
<path class="st0" d="M42.5,130c-1.3,2.1-2.7,4.5-3.9,6.4c-1.1,1.9-0.5,4.2,1.3,5.4l25.6,15.8c1.9,1.1,4.3,0.6,5.4-1.3c0,0,0,0,0,0
	l0-0.1c1-1.7,2.3-3.9,3.8-6.3c10.2-16.8,20.4-14.7,38.8-5.9l25.4,12.1c2,0.9,4.3,0.1,5.3-1.9c0,0,0,0,0,0l0-0.1l12.2-27.6
	c0.9-2,0-4.3-2-5.2c-5.4-2.5-16-7.6-25.6-12.2C94.4,92.4,65,93.5,42.5,130z"/>
<linearGradient id="SVGID_00000103968113434483132670000017451109345151727771_" gradientUnits="userSpaceOnUse" x1="624.1038" y1="-1616.9341" x2="620.9996" y2="-1618.7181" gradientTransform="matrix(-25 0 0 -25 15646.75 -40391.75)">
	<stop  offset="0.18" style="stop-color:#2B56A3"/>
	<stop  offset="1" style="stop-color:#4678BC"/>
</linearGradient>
<path style="fill:url(#SVGID_00000103968113434483132670000017451109345151727771_);" d="M157.5,67.4c1.3-2.1,2.7-4.5,3.9-6.4
	c1.1-1.9,0.5-4.2-1.3-5.4l-25.6-15.8c-1.8-1.2-4.3-0.7-5.5,1.1c0,0,0,0,0,0c-0.1,0.1-0.1,0.2-0.1,0.2c-1,1.7-2.3,3.9-3.8,6.3
	c-10.2,16.8-20.4,14.7-38.8,5.9l-25.3-12c-2-0.9-4.3-0.1-5.3,1.9c0,0,0,0,0,0l0,0.1L43.4,70.9c-0.9,2,0,4.3,2,5.2
	c5.4,2.5,16,7.6,25.6,12.2C105.6,105,135,103.9,157.5,67.4z"/>
</svg>
