<?xml version="1.0" encoding="utf-8"?>
<!-- Generator: Adobe Illustrator 28.1.0, SVG Export Plug-In . SVG Version: 6.00 Build 0)  -->
<svg version="1.1" id="Layer_2" xmlns="http://www.w3.org/2000/svg" xmlns:xlink="http://www.w3.org/1999/xlink" x="0px" y="0px"
	 viewBox="0 0 200 200" style="enable-background:new 0 0 200 200;" xml:space="preserve">
<style type="text/css">
	.st0{fill:url(#SVGID_1_);}
	.st1{fill:url(#SVGID_00000178897993433964755110000012011297773991474108_);}
	.st2{fill:url(#SVGID_00000183968592137012169060000009601220034859556266_);}
</style>
<linearGradient id="SVGID_1_" gradientUnits="userSpaceOnUse" x1="6.826" y1="199.6572" x2="6.826" y2="194.479" gradientTransform="matrix(25 0 0 -25 -24 5026)">
	<stop  offset="0" style="stop-color:#40B2E7"/>
	<stop  offset="1" style="stop-color:#439AD5"/>
</linearGradient>
<path class="st0" d="M133.8,39.7c0-4.1-4.5-4.1-6.6-3.6c2.8-2.2,6.2-1.7,7.3-1l27.3,13.4c2.6,1.3,4.3,3.9,4.3,6.8v88.2
	c0,3-1.7,5.6-4.4,6.9L136,162.7c-1.8,0.8-5.6,2.6-8.8,0c4,0.8,6.2-2.1,6.6-4.1V39.7z"/>
<linearGradient id="SVGID_00000087376479234423151780000006486830177763289766_" gradientUnits="userSpaceOnUse" x1="6.2998" y1="199.0162" x2="2.6048" y2="195.9146" gradientTransform="matrix(25 0 0 -25 -24 5026)">
	<stop  offset="0" style="stop-color:#1470B4"/>
	<stop  offset="0.2706" style="stop-color:#167AB8"/>
	<stop  offset="0.4214" style="stop-color:#1277B6"/>
	<stop  offset="0.6182" style="stop-color:#116AAD"/>
	<stop  offset="0.8553" style="stop-color:#1271B1"/>
	<stop  offset="1" style="stop-color:#126EAE"/>
</linearGradient>
<path style="fill:url(#SVGID_00000087376479234423151780000006486830177763289766_);" d="M127.5,36.1c2.1-0.4,6.2-0.2,6.2,3.6v30.4
	l-82.9,62.7c-1.4,1.1-3.5,0.9-4.7-0.4l-8.5-9.2c-1.3-1.4-1.2-3.7,0.2-5l89.4-81.9L127.5,36.1z"/>
<linearGradient id="SVGID_00000042724408475277793060000007348043648878077338_" gradientUnits="userSpaceOnUse" x1="2.6209" y1="198.1577" x2="6.3056" y2="195.1068" gradientTransform="matrix(25 0 0 -25 -24 5026)">
	<stop  offset="0" style="stop-color:#1F90D0"/>
	<stop  offset="1" style="stop-color:#2372B9"/>
</linearGradient>
<path style="fill:url(#SVGID_00000042724408475277793060000007348043648878077338_);" d="M133.8,128.8L50.9,66
	c-1.4-1.1-3.5-0.9-4.7,0.4l-8.5,9.2c-1.3,1.4-1.2,3.7,0.2,5l89.4,81.9c4,0.8,6.2-2.1,6.6-4.1V128.8z"/>
</svg>
