<?xml version="1.0" encoding="utf-8"?>
<!-- Generator: Adobe Illustrator 28.1.0, SVG Export Plug-In . SVG Version: 6.00 Build 0)  -->
<svg version="1.1" id="Layer_2" xmlns="http://www.w3.org/2000/svg" xmlns:xlink="http://www.w3.org/1999/xlink" x="0px" y="0px"
	 viewBox="0 0 200 200" style="enable-background:new 0 0 200 200;" xml:space="preserve">
<style type="text/css">
	.st0{fill-rule:evenodd;clip-rule:evenodd;fill:#CC679A;}
	.st1{fill:#FFFFFF;}
</style>
<path class="st0" d="M98,30.9c38.2,0,69.1,30.9,69.1,69.1s-30.9,69.1-69.1,69.1S28.8,138.2,28.8,100S59.8,30.9,98,30.9z"/>
<path class="st1" d="M141.3,60.5c-3.1-12.3-23.5-16.3-42.8-9.5C86.5,55,75.4,61.4,65.8,69.8C55.2,79.7,53.5,88.4,54.2,92
	c2.5,12.7,19.9,21.1,27.1,27.2v0c-2.1,1-17.6,8.9-21.2,16.9c-3.8,8.5,0.6,14.5,3.5,15.3c9,2.2,18.5-1.6,23.4-9.5
	c4.1-6.3,4.9-14.1,2.3-21.2c3.5-0.9,7-1.1,10.6-0.6c12.1,1.4,14.5,9,14.1,12.2c-0.4,2.3-1.8,4.3-3.8,5.4c-0.8,0.5-1.1,0.7-1,1.1
	c0.1,0.6,0.5,0.5,1.2,0.4c3.7-1.2,6.4-4.5,6.6-8.4c0.3-7.4-6.8-15.7-19.4-15.5c-3.7-0.1-7.3,0.4-10.8,1.5c-0.2-0.2-0.4-0.4-0.5-0.6
	c-7.8-8.3-22.2-14.2-21.6-25.4c0.2-4.1,1.6-14.8,27.6-27.7c21.3-10.6,38.4-7.7,41.4-1.2c4.2,9.3-9.1,26.5-31.3,29
	c-5,1-10.1-0.3-14-3.5c-1.2-1.3-1.3-1.3-1.8-1.1c-0.7,0.4-0.3,1.5,0,2.2c1.7,3.1,4.6,5.4,8,6.3c8.7,1.9,17.8,1,26-2.6
	C133.9,87,144.4,72.5,141.3,60.5z M84.2,123c1,3.4,0.9,7-0.1,10.3c-0.1,0.3-0.2,0.7-0.4,1c-0.1,0.3-0.3,0.7-0.4,1
	c-0.8,1.7-1.9,3.3-3.2,4.7c-4,4.4-9.6,6-12,4.6c-2.6-1.5-1.3-7.7,3.4-12.6c3.6-3.5,7.7-6.5,12.2-8.7l0,0L84.2,123z"/>
</svg>
