<?xml version="1.0" encoding="utf-8"?>
<!-- Generator: Adobe Illustrator 28.1.0, SVG Export Plug-In . SVG Version: 6.00 Build 0)  -->
<svg version="1.1" id="Layer_2" xmlns="http://www.w3.org/2000/svg" xmlns:xlink="http://www.w3.org/1999/xlink" x="0px" y="0px"
	 viewBox="0 0 200 200" style="enable-background:new 0 0 200 200;" xml:space="preserve">
<style type="text/css">
	.st0{fill:#EA523D;}
	.st1{fill:#FFFFFF;}
</style>
<path class="st0" d="M42,106.1c-3.4-3.4-3.4-8.8,0-12.2L93.9,42c3.4-3.4,8.8-3.4,12.2,0L158,93.9c3.4,3.4,3.4,8.8,0,12.2L106.1,158
	c-3.4,3.4-8.8,3.4-12.2,0L42,106.1z"/>
<path class="st1" d="M83.3,52.7l-5.3,5.3l13.6,13.6c-0.5,1.2-0.9,2.5-0.9,3.9c0,3.9,2.5,7.3,5.9,8.6v33.2c-3.5,1.3-5.9,4.7-5.9,8.6
	c0,5.1,4.1,9.2,9.2,9.2s9.2-4.1,9.2-9.2c0-3.6-2-6.7-5-8.2V84l13,13c-0.5,1.2-0.8,2.4-0.8,3.8c0,5.1,4.1,9.2,9.2,9.2
	c5.1,0,9.2-4.1,9.2-9.2c0-5.1-4.1-9.2-9.2-9.2c-1,0-1.9,0.2-2.8,0.4l-13.9-13.9c0.3-0.9,0.4-1.8,0.4-2.7c0-5.1-4.1-9.2-9.2-9.2
	c-0.9,0-1.9,0.1-2.7,0.4L83.3,52.7z"/>
</svg>
