<?xml version="1.0" encoding="utf-8"?>
<!-- Generator: Adobe Illustrator 28.1.0, SVG Export Plug-In . SVG Version: 6.00 Build 0)  -->
<svg version="1.1" id="Layer_3" xmlns="http://www.w3.org/2000/svg" xmlns:xlink="http://www.w3.org/1999/xlink" x="0px" y="0px"
	 viewBox="0 0 200 200" style="enable-background:new 0 0 200 200;" xml:space="preserve">
<style type="text/css">
	.st0{fill:#55C3EA;}
</style>
<g>
	<path class="st0" d="M149.9,77.2c-1.6-0.6-3.3-1.1-5-1.6c0.3-1.2,0.5-2.3,0.8-3.4c3.8-18.5,1.3-33.4-7.2-38.4
		c-8.2-4.7-21.5,0.2-35,11.9c-1.3,1.1-2.6,2.3-3.9,3.6c-0.9-0.8-1.7-1.6-2.6-2.4C82.8,34.4,68.6,29.1,60.1,34.1
		C52,38.8,49.6,52.8,53,70.4c0.3,1.7,0.7,3.4,1.2,5.2c-2,0.6-3.9,1.2-5.8,1.8c-16.6,5.8-27.2,14.8-27.2,24.2
		c0,9.7,11.4,19.4,28.6,25.3c1.4,0.5,2.8,0.9,4.2,1.3c-0.5,1.9-0.9,3.8-1.2,5.6c-3.3,17.2-0.7,30.9,7.4,35.6
		c8.4,4.8,22.5-0.1,36.3-12.1c1.1-0.9,2.2-2,3.3-3c1.4,1.4,2.8,2.7,4.2,3.9c13.3,11.5,26.5,16.1,34.6,11.4
		c8.4-4.9,11.1-19.6,7.6-37.5c-0.3-1.4-0.6-2.8-0.9-4.2c1-0.3,2-0.6,2.9-0.9c18-5.9,29.6-15.6,29.6-25.4
		C177.8,92.2,166.8,83.1,149.9,77.2L149.9,77.2z M146,120.6c-0.9,0.3-1.7,0.6-2.6,0.8c-2-6.3-4.7-12.9-7.9-19.8
		c3.1-6.7,5.7-13.3,7.6-19.5c1.6,0.5,3.2,1,4.7,1.5c14.5,5,23.3,12.4,23.3,18C171.1,107.7,161.5,115.5,146,120.6L146,120.6z
		 M139.6,133.4c1.6,7.9,1.8,15.1,0.8,20.7c-0.9,5-2.8,8.4-5.1,9.7c-4.9,2.9-15.5-0.9-26.9-10.6c-1.3-1.1-2.6-2.3-3.9-3.6
		c4.4-4.8,8.8-10.4,13.1-16.7c7.6-0.7,14.7-1.8,21.2-3.3C139.1,130.9,139.4,132.2,139.6,133.4L139.6,133.4z M74.6,163.3
		c-4.8,1.7-8.7,1.8-11,0.4c-4.9-2.8-7-13.8-4.2-28.6c0.3-1.7,0.7-3.4,1.1-5.2c6.4,1.4,13.5,2.4,21.1,3.1c4.3,6.1,8.9,11.7,13.4,16.6
		c-1,1-2,1.9-3,2.7C86,157.6,79.9,161.4,74.6,163.3L74.6,163.3z M52,120.6c-7.6-2.6-13.9-6-18.3-9.7c-3.9-3.3-5.8-6.6-5.8-9.3
		c0-5.7,8.5-13,22.7-17.9c1.7-0.6,3.5-1.2,5.4-1.7c2,6.4,4.5,13,7.6,19.8c-3.1,6.8-5.7,13.6-7.7,20.1C54.5,121.4,53.2,121,52,120.6
		L52,120.6z M59.6,69.1c-2.9-15-1-26.4,3.9-29.2c5.2-3,16.8,1.3,29,12.1c0.8,0.7,1.6,1.4,2.3,2.2c-4.5,4.9-9,10.4-13.3,16.5
		c-7.4,0.7-14.4,1.8-20.9,3.2C60.2,72.3,59.9,70.6,59.6,69.1L59.6,69.1z M127.1,85.8c-1.5-2.7-3.1-5.3-4.8-7.8
		c5,0.6,9.8,1.5,14.3,2.5c-1.3,4.3-3,8.8-5,13.5C130.2,91.2,128.7,88.5,127.1,85.8L127.1,85.8z M99.6,58.9c3.1,3.3,6.2,7.1,9.2,11.1
		c-3.1-0.1-6.2-0.2-9.3-0.2c-3.1,0-6.2,0.1-9.2,0.2C93.3,66,96.4,62.3,99.6,58.9L99.6,58.9z M71.8,85.8c-1.5,2.7-3,5.4-4.4,8.1
		c-1.9-4.6-3.6-9.2-5-13.5c4.5-1,9.2-1.8,14.2-2.4C75,80.5,73.4,83.1,71.8,85.8L71.8,85.8L71.8,85.8z M76.8,125.8
		c-5.1-0.6-10-1.3-14.4-2.3c1.4-4.5,3.1-9.1,5.1-13.8c1.4,2.7,2.9,5.4,4.4,8.1h0C73.4,120.5,75.1,123.2,76.8,125.8L76.8,125.8z
		 M99.7,144.7c-3.2-3.4-6.3-7.2-9.4-11.3c3,0.1,6.1,0.2,9.2,0.2c3.2,0,6.3-0.1,9.5-0.2C105.9,137.6,102.8,141.4,99.7,144.7
		L99.7,144.7z M131.7,109.4c2.1,4.8,3.9,9.4,5.3,13.8c-4.5,1-9.4,1.9-14.6,2.5c1.6-2.6,3.2-5.2,4.8-8
		C128.7,114.9,130.2,112.1,131.7,109.4L131.7,109.4z M121.3,114.3c-2.4,4.2-5,8.3-7.5,12.1c-4.6,0.3-9.4,0.5-14.3,0.5
		c-4.9,0-9.6-0.2-14.2-0.4c-2.7-3.9-5.2-7.9-7.7-12.1h0c-2.4-4.2-4.7-8.4-6.7-12.6c2-4.2,4.2-8.4,6.7-12.6l0,0
		c2.4-4.2,5-8.2,7.6-12.1c4.7-0.4,9.4-0.5,14.3-0.5h0c4.8,0,9.6,0.2,14.3,0.5c2.6,3.8,5.1,7.9,7.5,12c2.5,4.2,4.7,8.4,6.8,12.6
		C126,105.9,123.8,110.1,121.3,114.3L121.3,114.3z M135.1,39.6c5.2,3,7.3,15.2,4,31.2c-0.2,1-0.4,2.1-0.7,3.1
		c-6.5-1.5-13.6-2.6-20.9-3.3c-4.3-6.1-8.8-11.7-13.2-16.5c1.2-1.2,2.4-2.3,3.6-3.3C119.4,40.8,130.2,36.8,135.1,39.6L135.1,39.6z
		 M99.5,87.6c7.7,0,14,6.3,14,14c0,7.7-6.3,14-14,14s-14-6.3-14-14C85.5,93.9,91.8,87.6,99.5,87.6L99.5,87.6z"/>
</g>
</svg>
