<?xml version="1.0" encoding="utf-8"?>
<!-- Generator: Adobe Illustrator 28.1.0, SVG Export Plug-In . SVG Version: 6.00 Build 0)  -->
<svg version="1.1" id="Layer_3" xmlns="http://www.w3.org/2000/svg" xmlns:xlink="http://www.w3.org/1999/xlink" x="0px" y="0px"
	 viewBox="0 0 200 200" style="enable-background:new 0 0 200 200;" xml:space="preserve">
<style type="text/css">
	.st0{fill:url(#SVGID_1_);}
	.st1{fill:#F07E25;}
</style>
<radialGradient id="SVGID_1_" cx="-182.959" cy="-127.6036" r="0.1266" gradientTransform="matrix(733.335 0 0 -710.0016 134248.8281 -90532.8359)" gradientUnits="userSpaceOnUse">
	<stop  offset="0" style="stop-color:#423325;stop-opacity:0.98"/>
	<stop  offset="1" style="stop-color:#1A0D08"/>
</radialGradient>
<path class="st0" d="M38.4,39.3h122.2v118.8H38.4V39.3z"/>
<path class="st1" d="M38.4,39.3h122.2v118.8H38.4V39.3z M32.8,163.7h133.3V33.7H32.8V163.7z M120.1,80c0-0.4,0.2-0.7,0.7-0.7h8.7
	c0.4,0,0.7,0.2,0.7,0.7v43.8c0,0.4-0.1,0.7-0.7,0.7h-8.6c-0.6,0-0.7-0.3-0.7-0.7L120.1,80L120.1,80L120.1,80z M119.5,67.4
	c0-3.6,2.5-5.7,5.7-5.7c3.4,0,5.7,2.3,5.7,5.7c0,3.7-2.4,5.7-5.8,5.7C121.9,73.1,119.5,71.1,119.5,67.4z M94.5,98.3
	c-1.6-6.2-5.2-19.6-6.6-26.1h-0.1c-1.2,6.5-4.1,17.5-6.4,26.1H94.5z M79.1,107.3L74.7,124c-0.1,0.4-0.3,0.6-0.8,0.6h-8.2
	c-0.6,0-0.7-0.2-0.6-0.8l15.8-55.2c0.3-1,0.4-1.9,0.6-4.6c0-0.4,0.2-0.6,0.4-0.6h11.7c0.4,0,0.6,0.1,0.7,0.6l17.7,59.9
	c0.1,0.4,0,0.7-0.4,0.7h-9.2c-0.4,0-0.7-0.1-0.8-0.5l-4.6-16.7H79.1L79.1,107.3z"/>
</svg>
