<?xml version="1.0" encoding="utf-8"?>
<!-- Generator: Adobe Illustrator 28.1.0, SVG Export Plug-In . SVG Version: 6.00 Build 0)  -->
<svg version="1.1" id="Layer_2" xmlns="http://www.w3.org/2000/svg" xmlns:xlink="http://www.w3.org/1999/xlink" x="0px" y="0px"
	 viewBox="0 0 200 200" style="enable-background:new 0 0 200 200;" xml:space="preserve">
<style type="text/css">
	.st0{fill:#111023;}
	.st1{fill:#41BFEA;}
</style>
<path class="st0" d="M38.4,39.3h122.2v118.8H38.4V39.3z"/>
<path class="st1" d="M38.4,39.3h122.2v118.8H38.4V39.3z M32.8,163.7h133.3V33.7H32.8V163.7z M122.7,87c-4.4,0-5.9,2.2-5.9,4.1
	c0,2,1,3.4,6.9,6.4c8.7,4.2,11.4,8.3,11.4,14.2c0,8.9-6.8,13.7-15.9,13.7c-3.9,0.1-7.8-0.7-11.4-2.4c-0.4-0.2-0.4-0.4-0.4-0.9V114
	c0-0.6,0.3-0.7,0.7-0.4c3.3,2.1,7.2,3.3,11.2,3.3c4.4,0,6.2-1.8,6.2-4.3c0-2-1.3-3.8-6.9-6.7c-7.9-3.8-11.2-7.6-11.2-14
	c0-7.2,5.6-13.1,15.3-13.1c3.4-0.1,6.8,0.4,9.9,1.6c0.4,0.2,0.6,0.7,0.6,1.1V89c0,0.4-0.3,0.7-0.8,0.6C129.4,87.8,126.1,87,122.7,87
	L122.7,87z M74.9,93.6c1.3,0.1,2.3,0.1,4.5,0.1c6.5,0,12.6-2.3,12.6-11.1C92,75.6,87.6,72,80.3,72c-2.2,0-4.3,0.1-5.3,0.2V93.6z
	 M65,64.1c0-0.4,0.8-0.7,1.2-0.7c3.6-0.2,8.8-0.3,14.3-0.3c15.4,0,21.4,8.4,21.4,19.2c0,14.1-10.2,20.2-22.8,20.2
	c-2.1,0-2.8-0.1-4.3-0.1v21.3c0,0.4-0.2,0.7-0.7,0.7h-8.5c-0.4,0-0.7-0.2-0.7-0.7L65,64.1L65,64.1z"/>
</svg>
